<svg width="93" height="30" viewBox="0 0 93 30" fill="none" xmlns="http://www.w3.org/2000/svg">
<g clip-path="url(#clip0_1062_1938)">
<path d="M6.72484 11.9184C5.46926 11.9184 4.45882 12.4753 3.75929 13.4514V7.99609H0.584473V22.7692H3.76527V21.338C4.4648 22.332 5.5171 22.8889 6.80257 22.8889C9.57679 22.8889 11.3824 20.7212 11.3824 17.4516C11.3824 14.1281 9.52298 11.9184 6.72484 11.9184ZM5.95356 20.1583C4.66809 20.1583 3.76527 19.0205 3.76527 17.3498C3.76527 15.715 4.66809 14.5652 5.95356 14.5652C7.28088 14.5652 8.1837 15.721 8.1837 17.3498C8.17772 19.0085 7.28088 20.1583 5.95356 20.1583Z" fill="#0046E1"/>
<path d="M14.6887 7.146C13.7142 7.146 13.0146 7.90052 13.0146 8.95446C13.0146 10.0323 13.7082 10.7869 14.6887 10.7869C15.6693 10.7869 16.3629 10.0264 16.3629 8.95446C16.3629 7.90052 15.6693 7.146 14.6887 7.146Z" fill="#0046E1"/>
<path d="M13.093 22.7696H16.2559V12.0386H13.093V22.7696Z" fill="#0046E1"/>
<path d="M24.584 19.7992C24.1057 20.0207 23.6812 20.1585 23.3523 20.1585C22.7664 20.1824 22.4316 19.8231 22.4316 18.9907V14.793H25.0264V12.5234H22.4316V9.55322H19.2747V12.5414H17.8936V14.793H19.2747V19.5297C19.2747 21.7573 20.6558 22.931 22.5691 22.931C23.5257 22.931 24.5003 22.6496 25.2177 22.1885L24.584 19.7992Z" fill="#0046E1"/>
<path d="M76.756 11.3735C75.0759 11.3915 73.8263 12.2418 73.1627 13.9006C72.6485 12.3257 71.4168 11.3735 69.7547 11.3735C68.2659 11.3975 67.0881 12.0562 66.3885 13.3856V11.5412H63.136V22.7033H66.3885V17.1762C66.3885 15.6671 67.1658 14.5713 68.4154 14.5294C69.4916 14.5294 70.1553 15.3378 70.1553 16.6612V22.7033H73.4257V17.1762C73.4257 15.6671 74.1791 14.5713 75.4167 14.5294C76.4929 14.5294 77.1745 15.3378 77.1745 16.6612V22.7093H80.4271V15.6611C80.4271 13.0562 78.9921 11.3735 76.756 11.3735Z" fill="#0046E1"/>
<path d="M87.2253 11.4097C84.0684 11.4097 81.9041 13.6912 81.9041 17.1524C81.9041 20.5478 83.9847 22.8233 87.315 22.8233C89.1864 22.8233 90.723 22.1047 91.7573 20.8592L90.0354 19.0148C89.3538 19.7573 88.4809 20.1525 87.596 20.1525C86.3823 20.1525 85.5153 19.41 85.1925 18.0866H92.3672C92.5824 14.0086 90.8067 11.4157 87.2253 11.4097ZM89.2223 16.1584H85.1387C85.3419 14.817 86.1252 13.9068 87.2552 13.9068C88.4271 13.9068 89.2223 14.793 89.2223 16.1584Z" fill="#0046E1"/>
<path d="M48.7211 1.30719C46.6092 0.61846 44.3664 0.430894 42.1697 0.759298C39.973 1.0877 37.8826 1.92308 36.0636 3.19948C35.851 3.04611 35.6147 2.92877 35.3641 2.85216C35.0383 2.74542 34.6946 2.70414 34.3529 2.73068C34.0111 2.75722 33.6779 2.85107 33.3724 3.00684C33.0669 3.16261 32.7951 3.37723 32.5726 3.63842C32.3501 3.8996 32.1812 4.2022 32.0757 4.52888C31.9474 4.91826 31.9136 5.33265 31.977 5.73774C32.0404 6.14282 32.1993 6.52695 32.4404 6.85832C31.2062 8.66297 30.3994 10.7259 30.0815 12.8901C29.7637 15.0543 29.9431 17.2625 30.6062 19.3467C31.2693 21.4309 32.3985 23.3361 33.9079 24.9171C35.4173 26.4981 37.267 27.7132 39.3162 28.47C39.4836 28.5359 39.663 28.5898 39.8423 28.6437C41.6326 29.2339 43.522 29.4627 45.4011 29.3168C47.2802 29.1708 49.1118 28.653 50.7898 27.7933C51.3427 27.5089 51.8779 27.1909 52.3921 26.8412L53.7015 28.1586C53.8151 28.2784 53.9526 28.2484 54.0124 28.0867L55.3637 24.1285C56.5074 22.7369 57.3795 21.1422 57.9346 19.4277C60.38 11.8705 56.3263 3.79831 48.7211 1.30719ZM56.7568 19.0504C56.2975 20.4638 55.6043 21.7897 54.706 22.9728L50.3772 24.4339C50.2218 24.4878 50.1919 24.6255 50.3055 24.7393L51.5072 25.9489C51.0939 26.2204 50.6669 26.4703 50.2278 26.6975C48.693 27.4848 47.0175 27.959 45.2983 28.0926C43.5792 28.2262 41.8507 28.0166 40.213 27.4759C33.2535 25.2124 29.5526 17.8169 31.7947 10.9124C32.1683 9.76253 32.6995 8.67022 33.3731 7.66673C33.4929 7.72727 33.6168 7.7793 33.7438 7.82243C34.0696 7.92917 34.4133 7.97045 34.7551 7.94391C35.0969 7.91737 35.43 7.82352 35.7355 7.66775C36.041 7.51198 36.3128 7.29735 36.5353 7.03617C36.7579 6.77499 36.9267 6.47238 37.0322 6.14571C37.1395 5.81833 37.1804 5.47281 37.1527 5.12938C37.125 4.78595 37.0292 4.4515 36.8708 4.14563C38.5267 3.00329 40.4234 2.25882 42.4133 1.97009C44.4033 1.68136 46.4329 1.85616 48.3444 2.48089C48.4998 2.53478 48.6613 2.58868 48.8167 2.64856C52.0082 3.81389 54.6216 6.17745 56.1035 9.23884C57.5855 12.3002 57.8198 15.8191 56.7568 19.0504Z" fill="#0046E1"/>
<path d="M46.3238 16.715C47.3103 15.685 47.986 14.8466 48.3507 14.1819C48.7105 13.5527 48.902 12.8411 48.9067 12.116C48.9067 10.7985 48.4463 9.75658 47.5375 8.99008C46.6287 8.22358 45.5705 7.84033 44.3687 7.84033C43.1669 7.84033 42.1744 8.09783 41.3972 8.61881C40.6199 9.13979 39.9024 9.9003 39.2507 10.9123L41.7439 12.3914C42.5272 11.1399 43.3642 10.5171 44.2372 10.5171C44.7155 10.5171 45.1041 10.6728 45.415 10.9842C45.5658 11.1381 45.6842 11.3207 45.7633 11.5213C45.8424 11.7219 45.8805 11.9363 45.8754 12.1519C45.8754 12.613 45.702 13.098 45.3492 13.5951C44.9965 14.0921 44.4105 14.7628 43.5855 15.6011L39.4959 19.7989V22.1224H49.3312V19.3258H43.8246L46.3238 16.715Z" fill="#0046E1"/>
<path d="M63.3936 24.0029H64.8883C65.5878 24.0029 66.096 24.1107 66.4069 24.3203C66.565 24.4307 66.6916 24.5804 66.7745 24.7547C66.8573 24.929 66.8934 25.1219 66.8793 25.3144C66.8894 25.5973 66.7959 25.8742 66.6162 26.0928C66.4148 26.3098 66.1442 26.4496 65.8509 26.4881V26.524C66.6521 26.6617 67.0527 27.0809 67.0527 27.7935C67.0639 28.0026 67.0265 28.2115 66.9435 28.4037C66.8605 28.5959 66.7342 28.7663 66.5743 28.9013C66.1888 29.1879 65.7142 29.328 65.2351 29.2966H63.3936V24.0029ZM64.0094 26.2725H65.0198C65.3457 26.2955 65.6714 26.2249 65.9585 26.0689C66.0587 25.9862 66.1373 25.8802 66.1873 25.7602C66.2373 25.6402 66.2573 25.5098 66.2455 25.3802C66.2552 25.2547 66.2309 25.129 66.1751 25.0162C66.1193 24.9034 66.0342 24.8078 65.9286 24.7395C65.6151 24.5854 65.2665 24.5173 64.9182 24.5419H64.0154V26.2725H64.0094ZM64.0094 26.7935V28.7756H65.1095C65.4482 28.7979 65.7853 28.7119 66.0721 28.5301C66.1842 28.4356 66.272 28.3157 66.3282 28.1802C66.3844 28.0447 66.4073 27.8978 66.395 27.7516C66.4064 27.6127 66.3822 27.4733 66.3246 27.3465C66.2671 27.2196 66.1781 27.1097 66.0661 27.027C65.7614 26.8524 65.4121 26.7712 65.0617 26.7935H64.0094Z" fill="#0046E1"/>
<path d="M69.7731 29.3685C69.5175 29.3821 69.2619 29.3418 69.0229 29.2499C68.7839 29.1581 68.5669 29.0169 68.386 28.8355C68.0291 28.4262 67.8466 27.893 67.8778 27.3504C67.8472 26.803 68.0149 26.2628 68.3502 25.8294C68.5029 25.643 68.6971 25.495 68.9172 25.3973C69.1373 25.2995 69.3772 25.2547 69.6177 25.2665C69.8381 25.2558 70.0581 25.2942 70.2618 25.3792C70.4655 25.4641 70.6478 25.5933 70.7955 25.7575C71.0947 26.1204 71.25 26.5808 71.232 27.051V27.4283H68.5056C68.4882 27.8131 68.6139 28.1907 68.8584 28.4882C68.9797 28.6123 69.1264 28.7087 69.2885 28.7707C69.4505 28.8327 69.624 28.8589 69.7971 28.8475C70.2335 28.8453 70.6649 28.7536 71.0646 28.578V29.111C70.8699 29.1956 70.6677 29.2617 70.4607 29.3086C70.2347 29.3555 70.0039 29.3756 69.7731 29.3685ZM69.6117 25.7635C69.4702 25.7577 69.3292 25.7825 69.1981 25.8362C69.0671 25.89 68.9492 25.9714 68.8524 26.0749C68.6477 26.3168 68.5298 26.6204 68.5176 26.9372H70.5863C70.6069 26.6272 70.518 26.3199 70.3352 26.0689C70.2473 25.9643 70.1359 25.882 70.0102 25.829C69.8844 25.7759 69.7478 25.7534 69.6117 25.7635Z" fill="#0046E1"/>
<path d="M74.8785 29.2966H74.2627V24.0029H77.2103V24.5479H74.8785V26.4821H77.0668V27.027H74.8785V29.2966Z" fill="#0046E1"/>
<path d="M79.8053 25.2603C79.9637 25.2592 80.1219 25.2732 80.2776 25.3022L80.1939 25.8592C80.0512 25.8232 79.9046 25.8051 79.7575 25.8053C79.5999 25.8057 79.4443 25.8408 79.3017 25.908C79.1591 25.9753 79.033 26.0731 78.9324 26.1945C78.6997 26.465 78.5779 26.8138 78.5916 27.1706V29.2964H77.9937V25.3262H78.4899L78.5557 26.0628H78.5856C78.713 25.8237 78.8954 25.6184 79.1177 25.4639C79.3213 25.3286 79.5609 25.2576 79.8053 25.2603Z" fill="#0046E1"/>
<path d="M82.6933 29.3685C82.4377 29.3821 82.1821 29.3418 81.9431 29.2499C81.7041 29.1581 81.4871 29.0169 81.3062 28.8355C80.9493 28.4262 80.7668 27.893 80.798 27.3504C80.7673 26.803 80.9351 26.2628 81.2703 25.8294C81.4231 25.643 81.6173 25.495 81.8374 25.3973C82.0575 25.2995 82.2974 25.2547 82.5379 25.2665C82.7583 25.2558 82.9783 25.2942 83.182 25.3792C83.3857 25.4641 83.568 25.5933 83.7157 25.7575C84.0148 26.1204 84.1702 26.5808 84.1522 27.051V27.4283H81.4258C81.4084 27.8131 81.5341 28.1907 81.7785 28.4882C81.8999 28.6123 82.0466 28.7087 82.2086 28.7707C82.3707 28.8327 82.5442 28.8589 82.7172 28.8475C83.1537 28.8453 83.5851 28.7536 83.9848 28.578V29.111C83.7901 29.1956 83.5879 29.2617 83.3809 29.3086C83.1548 29.3552 82.9241 29.3753 82.6933 29.3685ZM82.5319 25.7635C82.3904 25.7577 82.2493 25.7825 82.1183 25.8362C81.9873 25.89 81.8693 25.9714 81.7726 26.0749C81.5679 26.3168 81.45 26.6204 81.4377 26.9372H83.5065C83.5271 26.6272 83.4382 26.3199 83.2553 26.0689C83.1668 25.9652 83.0552 25.8836 82.9297 25.8306C82.8041 25.7775 82.6679 25.7546 82.5319 25.7635Z" fill="#0046E1"/>
<path d="M86.8422 29.3685C86.5866 29.3821 86.331 29.3418 86.092 29.2499C85.853 29.1581 85.636 29.0169 85.4551 28.8355C85.0982 28.4262 84.9157 27.893 84.9469 27.3504C84.9163 26.803 85.084 26.2628 85.4193 25.8294C85.572 25.643 85.7662 25.495 85.9863 25.3973C86.2064 25.2995 86.4463 25.2547 86.6868 25.2665C86.9072 25.2558 87.1272 25.2942 87.3309 25.3792C87.5346 25.4641 87.7169 25.5933 87.8646 25.7575C88.1638 26.1204 88.3191 26.5808 88.3011 27.051V27.4283H85.5747C85.5573 27.8131 85.683 28.1907 85.9275 28.4882C86.0488 28.6123 86.1955 28.7087 86.3576 28.7707C86.5196 28.8327 86.6931 28.8589 86.8662 28.8475C87.3026 28.8453 87.734 28.7536 88.1337 28.578V29.111C87.939 29.1956 87.7368 29.2617 87.5298 29.3086C87.3038 29.3555 87.073 29.3756 86.8422 29.3685ZM86.6808 25.7635C86.5393 25.7577 86.3983 25.7825 86.2672 25.8362C86.1362 25.89 86.0183 25.9714 85.9215 26.0749C85.7168 26.3168 85.5989 26.6204 85.5867 26.9372H87.6554C87.676 26.6272 87.5871 26.3199 87.4043 26.0689C87.3164 25.9643 87.205 25.882 87.0793 25.829C86.9535 25.7759 86.8169 25.7534 86.6808 25.7635Z" fill="#0046E1"/>
<path d="M89.2343 28.9132C89.2343 28.5838 89.3778 28.4221 89.6708 28.4221C89.7305 28.4183 89.7903 28.4275 89.8461 28.4493C89.9018 28.471 89.9522 28.5047 89.9936 28.5479C90.0779 28.65 90.1187 28.7812 90.1072 28.9132C90.1129 29.0426 90.0726 29.1699 89.9936 29.2725C89.9531 29.3168 89.9028 29.3513 89.8468 29.3731C89.7908 29.3949 89.7306 29.4035 89.6708 29.3982C89.614 29.4009 89.5573 29.3922 89.5039 29.3727C89.4505 29.3532 89.4015 29.3232 89.3599 29.2845C89.3144 29.2347 89.2797 29.176 89.2581 29.112C89.2365 29.0481 89.2284 28.9804 89.2343 28.9132ZM89.8681 27.8413H89.4914L89.306 24.0088H90.0534L89.8681 27.8413Z" fill="#0046E1"/>
</g>
<defs>
<clipPath id="clip0_1062_1938">
<rect width="91.8" height="28.8" fill="white" transform="translate(0.584473 0.600098)"/>
</clipPath>
</defs>
</svg>
