<svg fill="none" height="28" viewBox="0 0 129 28" width="129" xmlns="http://www.w3.org/2000/svg"><g fill="#0182ff"><path d="m23.3887 14.2598v-.0384c0-3.7328 2.7948-6.78979 6.7706-6.78979 2.0273 0 3.3597.59904 4.5023 1.49227.1412.10789.2554.24699.3338.40639s.1189.33478.1182.51242c.0006.1496-.0287.29781-.0863.43591s-.1422.2633-.2489.3682c-.1066.1049-.2332.1873-.3723.2426-.139.0552-.2877.082-.4373.0789-.2487.0065-.4927-.0684-.695-.2132-.8996-.7312-1.8759-1.18315-3.1316-1.18315-2.4963 0-4.3339 2.06355-4.3339 4.63455v.0362c0 2.571 1.8184 4.6538 4.3339 4.6538 1.3878 0 2.3258-.4498 3.283-1.2578.186-.1746.4293-.2754.6843-.2835.2843.0021.5566.1143.7598.3131.2031.1988.3213.4687.3296.7528-.0013.1561-.0354.3102-.1.4523-.0647.1422-.1584.2691-.2752.3727-1.2301 1.0915-2.6328 1.7673-4.7646 1.7673-3.8202 0-6.6704-2.9824-6.6704-6.7536z"/><path d="m36.2266 15.8905v-.0362c0-2.8332 2.2512-5.1782 5.2911-5.1782 3.04 0 5.272 2.3088 5.272 5.1398v.0384c0 2.814-2.2512 5.159-5.3104 5.159-3.0207 0-5.2527-2.3066-5.2527-5.1228zm8.2927 0v-.0362c0-1.7438-1.2578-3.1977-3.04-3.1977-1.8184 0-2.9845 1.4262-2.9845 3.1508v.0384c0 1.7267 1.2578 3.17 3.0208 3.17 1.8397.0085 3.0037-1.4177 3.0037-3.1253z"/><path d="m48.4648 8.21822c0-.67365.5628-1.1064 1.294-1.1064s1.294.42636 1.294 1.1064v.11299c0 .67578-.5628 1.12559-1.294 1.12559s-1.294-.44981-1.294-1.12559zm.1685 3.69658c-.0032-.1496.0237-.2983.0789-.4373.0552-.1391.1377-.2657.2426-.3724.1049-.1066.23-.1912.3681-.2488s.2863-.0869.4359-.0863c.1506-.0009.2999.0282.4391.0854.1393.0572.2658.1415.3723.248s.1908.233.248.3723.0863.2885.0854.4391v7.8408c-.0127.2925-.1378.5689-.3493.7714s-.493.3156-.7859.3156c-.2928 0-.5743-.1131-.7858-.3156s-.3367-.4789-.3493-.7714z"/><path d="m53.2698 11.9147c-.0032-.1496.0237-.2982.0789-.4373.0552-.139.1377-.2656.2426-.3723s.2301-.1913.3682-.2489c.138-.0575.2863-.0869.4359-.0863.1505-.0008.2998.0282.4391.0855.1392.0572.2658.1415.3722.248.1065.1064.1908.233.248.3722.0573.1393.0863.2886.0854.4391v.4882c.6396-.9188 1.5563-1.7268 3.0954-1.7268 2.232 0 3.526 1.4923 3.526 3.7904v5.289c.0041.1494-.0222.2981-.0772.4371s-.1376.2654-.2428.3716c-.1051.1062-.2308.1899-.3692.2462-.1385.0563-.2869.084-.4364.0814-.1495.0031-.2982-.0238-.4373-.079-.139-.0552-.2656-.1377-.3723-.2426s-.1913-.23-.2488-.3681c-.0576-.1381-.087-.2863-.0863-.4359v-4.6069c0-1.537-.7696-2.4196-2.1191-2.4196-1.3131 0-2.232.9188-2.232 2.458v4.5578c-.0126.2926-.1378.5689-.3493.7715-.2115.2025-.493.3155-.7858.3155-.2929 0-.5744-.113-.7859-.3155-.2115-.2026-.3366-.4789-.3493-.7715z"/><path d="m67.7919 9.79358h-3.1977c-.2827 0-.5538-.1123-.7537-.3122-.1999-.19989-.3122-.47101-.3122-.7537 0-.2827.1123-.55382.3122-.75371.1999-.1999.471-.3122.7537-.3122h8.7404c.2827 0 .5538.1123.7537.3122.1999.19989.3122.47101.3122.75371 0 .28269-.1123.55381-.3122.7537-.1999.1999-.471.3122-.7537.3122h-3.2126v9.94492c-.0129.2998-.141.583-.3577.7906s-.5051.3235-.8052.3235-.5886-.1159-.8053-.3235c-.2166-.2076-.3448-.4908-.3576-.7906z"/><path d="m74.5178 11.9148c-.0031-.1496.0237-.2983.0789-.4374.0553-.139.1377-.2656.2426-.3723.1049-.1066.2301-.1913.3682-.2488.1381-.0576.2863-.0869.4359-.0863.1506-.0009.2998.0282.4391.0854s.2658.1415.3723.248.1908.233.248.3723c.0572.1392.0862.2885.0854.4391v1.0126c.5244-1.2386 1.4923-2.1766 2.4942-2.1766.1506-.0108.3017.0109.4432.0637.1414.0528.2699.1353.3766.2421.1068.1067.1893.2352.2421.3766.0527.1415.0745.2926.0637.4432.0092.2588-.0762.5122-.2402.7126-.164.2005-.3954.3344-.6509.3767-1.6223.2814-2.7287 1.5307-2.7287 3.8629v2.9269c.0006.1501-.0287.2988-.0861.4375-.0575.1387-.1419.2646-.2484.3703-.1066.1057-.2331.1892-.3722.2456s-.288.0846-.4381.0829c-.1481.0011-.295-.0272-.4321-.0834-.137-.0561-.2616-.139-.3663-.2438-.1048-.1047-.1876-.2292-.2438-.3663s-.0845-.284-.0834-.4321z"/><path d="m80.542 17.9371v-.0298c0-2.1318 1.6713-3.1977 4.0909-3.1977.9049-.0091 1.8052.1306 2.6648.4136v-.2452c0-1.4049-.8634-2.1574-2.458-2.1574-.7503-.0092-1.4955.1247-2.1958.3944-.1152.0363-.2351.0557-.356.0576-.1246.0014-.2483-.0219-.364-.0684-.1156-.0465-.221-.1155-.3099-.2028-.0889-.0874-.1597-.1914-.2083-.3062-.0487-.1148-.0741-.2381-.0749-.3628.0039-.1939.0646-.3824.1744-.5423.1099-.1599.2642-.2841.4438-.3573 1.0185-.3979 2.1043-.5955 3.1977-.582 1.4816 0 2.5901.3944 3.2829 1.1064.7312.7142 1.0659 1.7652 1.0659 3.0592v4.8775c.0024.146-.0248.2908-.08.4259-.0551.1352-.137.2577-.2408.3603s-.2273.1831-.363.2367c-.1358.0535-.281.0791-.4268.075-.6566 0-1.1064-.4498-1.1064-.955v-.3859c-.3929.4701-.8878.8445-1.4471 1.0946-.5592.2501-1.1682.3693-1.7805.3487-1.8568 0-3.5089-1.0681-3.5089-3.0571zm6.7919-.7141v-.6737c-.7199-.268-1.483-.4017-2.2512-.3943-1.4645 0-2.3258.6182-2.3258 1.65v.0383c0 .9551.8527 1.4923 1.9314 1.4923 1.5008.0085 2.6456-.8548 2.6456-2.1126z"/><path d="m91.0708 15.8906v-.0363c-.0082-.6808.1195-1.3565.3757-1.9873.2562-.6309.6358-1.2043 1.1165-1.6865.4807-.4823 1.0528-.8638 1.6828-1.1221s1.3052-.3882 1.9861-.3822c1.5562 0 2.6264.5073 3.4706 1.2385.1105.0998.1992.2214.2605.3572.061.1357.094.2827.095.4316 0 .1371-.027.2727-.0805.399-.0531.1263-.1308.2408-.2286.3368s-.2137.1716-.341.2224c-.1273.0509-.2634.0759-.4004.0736-.2434-.0025-.4798-.0816-.6758-.226-.574-.5405-1.3306-.845-2.119-.8527-1.6521 0-2.8694 1.4262-2.8694 3.1508v.0384c0 1.763 1.2173 3.17 2.9632 3.17.8214-.0084 1.6102-.3223 2.2128-.8805.1396-.1261.3134-.2082.4995-.236s.3762.0001.5466.08c.1703.0799.3133.2084.4108.3693.0978.1609.1458.347.1378.535.007.1378-.018.2754-.073.402-.0552.1265-.139.2385-.2447.3271-.8826.8527-1.9528 1.407-3.6028 1.407-.6756.0086-1.3462-.1182-1.972-.373s-1.1942-.6324-1.6717-1.1105-.8544-1.047-1.1084-1.6732c-.254-.6261-.38-1.2968-.3706-1.9724z"/><path d="m101.734 8.12439c-.001-.14803.028-.29481.084-.43177s.139-.26136.244-.36593c.104-.10458.229-.18725.366-.24318s.284-.084.432-.08258c.149-.00169.297.02606.435.08166s.264.13795.371.24233c.106.10438.191.22873.249.36592.058.1372.089.28453.09.43355v7.31631l4.263-4.1826c.301-.3005.582-.4881.977-.4881.133.0005.265.0278.388.0803s.234.1291.327.2254c.092.0962.165.21.213.3348.047.1247.07.2577.065.3913 0 .3751-.187.6565-.507.9571l-2.631 2.4196 3.002 3.9204c.182.2086.289.4733.3.7504.001.1387-.026.2761-.08.404-.053.1279-.132.2435-.232.34-.1.0964-.218.1717-.347.2211-.13.0495-.268.0722-.407.0667-.195.0092-.39-.0325-.564-.1211-.175-.0885-.323-.2209-.431-.3841l-2.835-3.7712-1.493 1.4262v1.7246c-.012.2926-.138.5689-.349.7715-.212.2025-.493.3156-.786.3156s-.574-.1131-.786-.3156c-.211-.2026-.336-.4789-.349-.7715z"/><path d="m116.278 21.0133c-2.87 0-5.085-2.0828-5.085-5.1398v-.0384c0-2.831 2.009-5.159 4.842-5.159 3.15 0 4.709 2.5881 4.709 4.8776.003.142-.022.2831-.074.4151-.053.1321-.131.2524-.23.3538-.099.1015-.218.1821-.349.2371-.131.0551-.271.0834-.413.0834h-6.212c.243 1.6116 1.388 2.5134 2.85 2.5134.859.0077 1.692-.2951 2.345-.8528.16-.1415.368-.2176.582-.2131.12-.001.239.0224.35.0686.111.0463.212.1144.296.2004s.15.1881.193.3001c.044.112.064.2317.061.3518-.002.1296-.03.2575-.082.3764-.051.1189-.126.2264-.219.3164-.974.8809-2.252 1.35-3.564 1.309zm2.251-5.8774c-.149-1.4646-1.013-2.6072-2.514-2.6072-1.387 0-2.364 1.0659-2.568 2.6072z"/><path d="m122.475 11.9148c-.003-.1496.024-.2983.079-.4374.055-.139.137-.2656.242-.3723.105-.1066.23-.1913.369-.2488.138-.0576.286-.0869.435-.0863.151-.0009.3.0282.44.0854.139.0572.265.1415.372.248.106.1065.191.233.248.3723.057.1392.086.2885.085.4391v1.0126c.525-1.2386 1.492-2.1766 2.494-2.1766.151-.0108.302.0109.444.0637.141.0528.269.1353.376.2421.107.1067.19.2352.242.3766.053.1415.075.2926.064.4432.009.2601-.078.5144-.243.7151-.166.2007-.4.3338-.657.3742-1.613.2814-2.72 1.52-2.72 3.8629v2.9269c.001.1501-.029.2988-.086.4375s-.142.2646-.248.3703c-.107.1057-.233.1892-.372.2456-.14.0564-.288.0846-.439.0829-.148.0011-.295-.0272-.432-.0834-.137-.0561-.261-.139-.366-.2438-.105-.1047-.188-.2292-.244-.3663s-.084-.284-.083-.4321z"/><path clip-rule="evenodd" d="m0 16.7135 15.2355 6.6509v3.0994c0 .8495-.6867 1.5362-1.5363 1.5362-.2077 0-.4155-.0451-.5963-.1174 0 0-11.23105-4.9064-11.23233-4.9069-1.066342-.4428-1.8163799-1.4639-1.87057-2.6748zm.00001056-8.83518c0 1.16733.65025344 2.17648 1.60416944 2.68948l.04048.0214 1.54522.6959 6.23527 2.7199h.00905v.009l4.9248 2.1507c.5136.2392.8624.7473.8761 1.3458l.0004.0368v4.446l-15.23548944-6.651zm15.26768944-1.91634v4.44592c0 .5749-.3204 1.0805-.7914 1.339l-.031.0165-3.4228 1.4971-1.55466-.679v-.0091h-.00905l-4.66791-2.0362zm-1.5392-5.96198c.8383 0 1.5182.668844 1.5359 1.50272l.0004.03345v3.10853l-12.04607 5.2542-1.54319-.69489c-.783576-.40626-1.368594-1.14459-1.569066-2.0325.216812-.95309.873816-1.73663 1.748606-2.11912l.04467-.0191 11.31385-4.9430087c.1625-.0632395.3343-.0902813.5149-.0902813z" fill-rule="evenodd"/></g></svg>