<svg xmlns="http://www.w3.org/2000/svg" width="136" height="19" fill="none" viewBox="0 0 136 19"><path fill="#00D0BA" fill-rule="evenodd" d="M11 0 8.408 5.455 11 10.911H1.498V19H0V0h11ZM8.524 1.63H1.498v7.65h7.026L6.68 5.456 8.524 1.63Z" clip-rule="evenodd"/><path fill="#fff" d="M23.483.245h10.092v1.348h-8.641v7.6h7.916v1.349h-7.916v8.09h-1.45V.245ZM36.476 6.803h1.329v1.594c.665-.981 1.632-1.778 3.142-1.778.967 0 1.45.184 1.813.43l-.483 1.286c-.544-.367-.907-.429-1.632-.429-1.51 0-2.296.981-2.84 1.9v8.826h-1.33V6.803Z"/><path fill="#fff" fill-rule="evenodd" d="M50.313 18.816c1.572 0 3.203-.552 4.291-1.655l-.363-1.103c-.846.858-2.236 1.47-3.806 1.47-2.78 0-4.654-1.715-4.774-4.535h9.608c.06-.306.06-.674.06-1.103 0-3.248-2.236-5.332-5.257-5.332-3.867 0-5.922 2.697-5.922 6.129 0 3.739 2.477 6.129 6.163 6.129Zm3.626-6.926h-8.4c.242-2.329 1.753-4.045 4.351-4.045 2.418 0 3.988 1.532 4.049 4.045ZM63.668 18.816c1.571 0 3.203-.552 4.29-1.655l-.362-1.103c-.846.858-2.236 1.47-3.807 1.47-2.78 0-4.653-1.715-4.774-4.535h9.608c.03-.15.045-.314.053-.493.008-.187.008-.39.008-.61 0-3.248-2.236-5.332-5.258-5.332-3.867 0-5.922 2.697-5.922 6.129 0 3.739 2.478 6.129 6.164 6.129Zm3.625-6.926h-8.399c.242-2.329 1.753-4.045 4.35-4.045 2.418 0 3.989 1.532 4.05 4.045Z" clip-rule="evenodd"/><path fill="#fff" d="M83.67 18.755h-1.088l-3.203-8.58-.544-1.472c-.18.552-.302 1.042-.543 1.594l-3.143 8.52h-1.087L70.134 6.863h1.45l2.659 8.275c.181.613.302 1.164.483 1.716.182-.552.363-1.103.544-1.716l2.961-8.274h1.088l3.021 8.212c.181.552.363 1.165.605 1.778.18-.674.362-1.287.543-1.9l2.478-8.09h1.39l-3.686 11.89Z"/><path fill="#fff" fill-rule="evenodd" d="M93.519 6.558c-1.33 0-2.598.43-3.686 1.103l.242 1.103c1.027-.551 1.873-.919 3.263-.919 2.9 0 3.082 1.778 3.082 4.597-.907-.736-2.236-.92-3.143-.92-2.477 0-4.41 1.288-4.41 3.678 0 2.145 1.45 3.494 3.625 3.494 2.115 0 3.263-.981 3.988-1.962v1.839h1.33v-7.294c0-3.003-1.028-4.719-4.291-4.719Zm2.961 7.11v1.96c-.604.86-1.571 1.84-3.565 1.9-1.45 0-2.599-.857-2.599-2.328 0-1.716 1.632-2.452 3.142-2.452 1.209 0 2.176.307 3.022.92Z" clip-rule="evenodd"/><path fill="#fff" d="M101.677.245h1.329v14.587c0 1.778.423 2.636 1.692 2.636.604 0 1.269-.307 1.632-.552l.362 1.103c-.544.43-1.39.797-2.477.797-1.753 0-2.538-1.042-2.538-3.187V.245ZM108.989.245h1.329v14.587c0 1.778.423 2.636 1.692 2.636.604 0 1.269-.307 1.632-.552l.362 1.103c-.544.43-1.39.797-2.477.797-1.753 0-2.538-1.042-2.538-3.187V.245Z"/><path fill="#fff" fill-rule="evenodd" d="M121.618 18.816c1.571 0 3.203-.552 4.291-1.655l-.363-1.103c-.846.858-2.236 1.47-3.807 1.47-2.78 0-4.653-1.715-4.774-4.535h9.608c.061-.306.061-.674.061-1.103 0-3.248-2.236-5.332-5.258-5.332-3.867 0-5.921 2.697-5.921 6.129 0 3.739 2.477 6.129 6.163 6.129Zm3.686-6.926h-8.399c.181-2.329 1.752-4.045 4.35-4.045 2.418 0 3.989 1.532 4.049 4.045Z" clip-rule="evenodd"/><path fill="#fff" d="M129.595 3.555h1.329v3.31h4.653v1.287h-4.653v5.822c0 2.33.725 3.555 2.599 3.555.785 0 1.45-.306 1.873-.613l.423 1.103c-.544.43-1.511.858-2.599.858-2.598 0-3.625-1.654-3.625-4.658V3.555Z"/></svg>