<?xml version="1.0" encoding="UTF-8" standalone="no"?>
<!-- Generator: Adobe Illustrator 25.0.1, SVG Export Plug-In . SVG Version: 6.00 Build 0)  -->

<svg
   version="1.0"
   id="katman_1"
   x="0px"
   y="0px"
   viewBox="0 0 142.10001 33.5"
   xml:space="preserve"
   sodipodi:docname="nexo.svg"
   width="142.10001"
   height="33.5"
   inkscape:version="1.1 (c68e22c387, 2021-05-23)"
   xmlns:inkscape="http://www.inkscape.org/namespaces/inkscape"
   xmlns:sodipodi="http://sodipodi.sourceforge.net/DTD/sodipodi-0.dtd"
   xmlns="http://www.w3.org/2000/svg"
   xmlns:svg="http://www.w3.org/2000/svg"><defs
   id="defs27" /><sodipodi:namedview
   id="namedview25"
   pagecolor="#ffffff"
   bordercolor="#666666"
   borderopacity="1.0"
   inkscape:pageshadow="2"
   inkscape:pageopacity="0.0"
   inkscape:pagecheckerboard="0"
   showgrid="false"
   inkscape:zoom="6.5444444"
   inkscape:cx="70.976231"
   inkscape:cy="16.88455"
   inkscape:window-width="1920"
   inkscape:window-height="1017"
   inkscape:window-x="1912"
   inkscape:window-y="-8"
   inkscape:window-maximized="1"
   inkscape:current-layer="katman_1" />
<style
   type="text/css"
   id="style2">
	.st0{fill:#2853C3;}
	.st1{fill:#60BEFF;}
	.st2{fill:#1A4199;}
	.st3{fill:#3CA9E5;}
</style>
<path
   class="st0"
   d="m 131.7,7.4 c -2.1,0 -4.1,0.6 -5.8,1.7 -1.7,1.1 -3.1,2.8 -3.9,4.7 -0.8,1.9 -1,4 -0.7,6.1 0.4,2 1.4,3.9 2.8,5.4 1.5,1.5 3.3,2.5 5.4,2.9 2,0.4 4.1,0.2 6.1,-0.6 1.9,-0.8 3.6,-2.1 4.7,-3.8 1.2,-1.7 1.8,-3.7 1.8,-5.8 0,-2.7 -1.1,-5.4 -3,-7.3 -2,-2.1 -4.7,-3.3 -7.4,-3.3 z m 0,16.4 c -0.8,0 -1.6,-0.1 -2.4,-0.4 -0.8,-0.3 -1.5,-0.7 -2.1,-1.3 -0.6,-0.6 -1.1,-1.2 -1.4,-2 -0.3,-0.8 -0.5,-1.6 -0.5,-2.4 0,-0.8 0.2,-1.6 0.5,-2.4 0.3,-0.8 0.8,-1.4 1.4,-2 0.6,-0.6 1.3,-1 2.1,-1.3 0.8,-0.3 1.6,-0.4 2.4,-0.4 1.5,0.1 3,0.8 4.1,1.9 1.1,1.1 1.7,2.6 1.7,4.1 0,1.5 -0.6,3 -1.7,4.1 -1.1,1.4 -2.6,2 -4.1,2.1 z"
   id="path4" />
<path
   class="st0"
   d="m 117.5,7.5 c -0.1,0 -0.1,-0.1 -0.2,-0.1 -0.1,0 -0.1,0 -0.2,0.1 l -7.1,7 -7,-7 c -0.1,0 -0.1,-0.1 -0.2,-0.1 -0.1,0 -0.1,0 -0.2,0.1 l -2.9,3 c 0,0.1 -0.1,0.1 -0.1,0.2 0,0.1 0,0.1 0.1,0.2 l 7,7 -7.1,7.1 c 0,0.1 -0.1,0.1 -0.1,0.2 0,0.1 0,0.1 0.1,0.2 l 2.8,2.8 c 0,0 0.1,0.1 0.1,0.1 0,0 0.1,0 0.1,0 0,0 0.1,0 0.1,0 0,0 0.1,0 0.1,-0.1 l 7,-7 7,7 c 0.1,0 0.1,0.1 0.2,0.1 0.1,0 0.1,0 0.2,-0.1 l 2.9,-2.8 c 0,-0.1 0.1,-0.1 0.1,-0.2 0,-0.1 0,-0.1 -0.1,-0.2 l -7,-7 7.1,-7 c 0,-0.1 0.1,-0.1 0.1,-0.2 0,-0.1 0,-0.1 -0.1,-0.2 z"
   id="path6" />
<path
   class="st0"
   d="M 98,16.7 C 97.6,11.5 93.2,7.4 87.9,7.4 c -1.5,0 -3,0.3 -4.4,1 -3.8,1.8 -5.8,5.5 -5.8,9.5 0.2,5.5 4.9,10 10.4,10 h 5.8 c 0.3,0 0.6,-0.3 0.6,-0.6 V 24 c 0,-0.3 -0.3,-0.6 -0.6,-0.6 h -6 c -2.5,0 -4.7,-1.9 -5.5,-4.2 h 14.8 c 0.4,0 0.7,-0.3 0.7,-0.7 C 98,18.2 98,16.7 98,16.7 Z m -4.8,-1 H 82.5 c 0.9,-2.5 3.3,-4 5.9,-3.8 2.2,0.2 4.1,1.7 4.8,3.8 z"
   id="path8" />
<path
   class="st0"
   d="m 64.7,7.4 c -1.9,0 -3.8,0.7 -5.4,1.8 V 8 c 0,-0.1 0,-0.2 -0.1,-0.2 C 59.1,7.7 59,7.7 59,7.7 h -3.7 c -0.1,0 -0.2,0 -0.2,0.1 C 55,7.9 55,8 55,8 v 9.3 c 0,0.2 0,0.3 0,0.5 v 9.5 c 0,0.2 0.1,0.3 0.2,0.4 0.1,0.1 0.2,0.2 0.4,0.2 h 3.3 c 0.1,0 0.1,0 0.2,0 0.1,0 0.1,-0.1 0.2,-0.1 0.1,-0.1 0.1,-0.1 0.1,-0.2 0,-0.1 0,-0.1 0,-0.2 v -9.8 c 0,-0.8 0.2,-1.6 0.5,-2.3 0.3,-0.7 0.8,-1.4 1.4,-1.9 0.6,-0.5 1.3,-0.9 2.1,-1.2 0.8,-0.3 1.6,-0.3 2.4,-0.3 1.4,0.2 2.8,0.8 3.8,1.9 1,1.1 1.5,2.5 1.5,4 v 9.6 c 0,0.1 0,0.1 0,0.2 0,0.1 0.1,0.1 0.1,0.2 0.1,0.1 0.1,0.1 0.2,0.1 0.1,0 0.1,0 0.2,0 h 3.3 c 0.2,0 0.3,-0.1 0.4,-0.2 0.1,-0.1 0.2,-0.3 0.2,-0.4 v -9.8 c 0,-1.4 -0.3,-2.7 -0.8,-4 C 74.2,12.2 73.4,11.1 72.4,10.1 71.4,9.2 70.2,8.4 68.9,7.9 67.5,7.6 66.1,7.4 64.7,7.4 Z"
   id="path10" />
<path
   class="st1"
   d="m 0.1,5.5 v 21.9 c 0,0.1 0,0.3 0.1,0.4 0.1,0.1 0.2,0.2 0.3,0.3 l 9.6,5.4 V 11.1 Z"
   id="path12" />
<path
   class="st2"
   d="m 30,0 9.6,5.4 c 0.1,0.1 0.2,0.2 0.3,0.3 C 40,5.8 40,5.9 40,6.1 V 28 L 30,22.4 Z"
   id="path14" />
<path
   class="st3"
   d="m 10.1,33.5 10,-5.6 -10,-5.6 z"
   id="path16" />
<path
   class="st3"
   d="M 10.4,0.2 30,11.2 V 22.4 L 0,5.6 9.6,0.2 C 9.7,0.1 9.8,0.1 10,0.1 c 0.2,0 0.3,0 0.4,0.1 z"
   id="path18" />
<path
   class="st0"
   d="M 30,0 20,5.6 30,11.2 Z"
   id="path20" />
<path
   class="st0"
   d="m 40,27.9 -9.6,5.4 c -0.1,0 -0.2,0.1 -0.4,0.1 -0.1,0 -0.3,0 -0.4,-0.1 L 10,22.3 V 11.1 Z"
   id="path22" />
</svg>
